<?xml version="1.0" encoding="utf-8"?>
<!-- Generator: Adobe Illustrator 23.0.2, SVG Export Plug-In . SVG Version: 6.00 Build 0)  -->
<svg version="1.1" id="Layer_1" xmlns="http://www.w3.org/2000/svg" xmlns:xlink="http://www.w3.org/1999/xlink" x="0px" y="0px"
	 viewBox="0 0 1226 1481" style="enable-background:new 0 0 1226 1481;" xml:space="preserve">
<style type="text/css">
	.st0{fill:#3B3747;}
</style>
<path class="st0" d="M44.8,63l-5.2-5.2c-3.7,2.1-7.8,3.1-12.3,3.1c-6.8,0-12.6-2.4-17.5-7.1C4.9,49,2.4,43.3,2.4,36.6
	s2.5-12.4,7.4-17.2c4.9-4.7,10.7-7.1,17.5-7.1c6.8,0,12.7,2.4,17.6,7.1s7.3,10.5,7.3,17.2c0,4.8-1.3,9.2-3.8,13l4.9,5L44.8,63z
	 M27.2,49.3c3.6,0,6.6-1.3,9.1-3.7s3.7-5.5,3.7-9s-1.2-6.6-3.7-9.1s-5.5-3.7-9.1-3.7c-3.5,0-6.5,1.3-9,3.7s-3.7,5.5-3.7,9
	s1.3,6.5,3.7,9S23.7,49.3,27.2,49.3z"/>
</svg>
